<?xml version="1.0" encoding="UTF-8" standalone="no"?>
<!-- Created with Inkscape (http://www.inkscape.org/) -->

<svg
   width="210mm"
   height="297mm"
   viewBox="0 0 210 297"
   version="1.1"
   id="svg1"
   inkscape:version="1.4.4 (dcaf3e7, 2026-05-05)"
   sodipodi:docname="logo-text-2-lines-vector.svg"
   xmlns:inkscape="http://www.inkscape.org/namespaces/inkscape"
   xmlns:sodipodi="http://sodipodi.sourceforge.net/DTD/sodipodi-0.dtd"
   xmlns="http://www.w3.org/2000/svg"
   xmlns:svg="http://www.w3.org/2000/svg">
  <sodipodi:namedview
     id="namedview1"
     pagecolor="#ffffff"
     bordercolor="#000000"
     borderopacity="0.25"
     inkscape:showpageshadow="2"
     inkscape:pageopacity="0.0"
     inkscape:pagecheckerboard="0"
     inkscape:deskcolor="#d1d1d1"
     inkscape:document-units="mm"
     inkscape:zoom="0.51981271"
     inkscape:cx="714.68048"
     inkscape:cy="764.6985"
     inkscape:window-width="2560"
     inkscape:window-height="1369"
     inkscape:window-x="-8"
     inkscape:window-y="-8"
     inkscape:window-maximized="1"
     inkscape:current-layer="layer1" />
  <defs
     id="defs1" />
  <g
     inkscape:label="Calque 1"
     inkscape:groupmode="layer"
     id="layer1">
    <g
       id="g1"
       transform="translate(-70.038982,-0.94290924)">
      <path
         style="font-size:72.2852px;font-family:'Yay Babe';-inkscape-font-specification:'Yay Babe';letter-spacing:0px;stroke-width:25.6128;stroke-linecap:round;stroke-miterlimit:0"
         d="m 86.742555,145.49106 q -1.228848,0 -2.023985,-0.506 -0.795138,-0.50599 -1.228849,-1.30113 -0.505996,-0.79514 -0.722852,-1.73485 -0.216855,-1.01199 -0.216855,-2.02398 0,-1.73485 0.28914,-3.46969 0.216856,-1.73485 0.505997,-3.46969 0.289141,-1.66256 0.505996,-3.39741 0.216856,-1.73484 0.216856,-3.46969 0,-0.36142 -0.07229,-0.57828 -0.216856,-0.43371 -0.216856,-0.93971 0,-1.4457 1.011993,-2.38541 1.011993,-1.01199 2.457697,-1.01199 1.228848,0 2.168556,0.86742 0.939707,0.79514 1.301133,2.02399 0.650567,-1.30114 1.445704,-2.60227 0.795138,-1.30113 1.879416,-2.38541 1.084278,-1.08428 2.385411,-1.73485 1.301134,-0.65056 2.891408,-0.65056 2.52998,0 3.97569,2.02398 1.51799,2.02399 2.31312,5.05997 0.86743,3.03598 1.22885,6.57795 0.36143,3.54198 0.65057,6.65024 0.21685,1.73484 0.36142,3.25283 0.21686,1.44571 0.43372,2.4577 1.87941,-2.02398 3.83111,-4.33711 1.9517,-2.31313 3.83112,-4.62625 1.87941,-2.31313 3.54197,-4.55397 1.73485,-2.24084 3.10827,-4.12026 0.43371,-0.72285 1.01199,-1.01199 0.65057,-0.28914 1.30113,-0.28914 1.22885,0 2.09627,1.01199 0.93971,0.93971 0.93971,2.38541 0,1.08428 -0.72285,2.16856 -0.79514,1.30113 -2.16856,3.3974 -1.37342,2.02399 -3.03598,4.4094 -1.66256,2.38541 -3.61426,4.84311 -1.9517,2.38541 -3.9034,4.33711 -1.9517,2.02399 -3.83111,3.25283 -1.87942,1.22885 -3.46969,1.22885 -1.9517,0 -3.25284,-1.51799 -1.22885,-1.51799 -2.02398,-3.9034 -0.72285,-2.45769 -1.15657,-5.42139 -0.43371,-3.03598 -0.72285,-5.99967 -0.361424,-3.10826 -0.433709,-5.71053 0,-2.67455 -0.722852,-4.33711 -1.445704,1.4457 -2.529982,4.19254 -1.011993,2.74684 -2.023986,5.71053 -0.722852,2.16856 -1.517989,4.26483 -0.722852,2.09627 -1.662559,3.75883 -0.867423,1.59027 -1.951701,2.60227 -1.084278,1.01199 -2.457697,1.01199 z m 42.286845,0.0723 q -2.52999,0 -4.04798,-1.9517 -1.4457,-2.02398 -2.24084,-4.69854 -0.79513,-2.74683 -1.08428,-5.63824 -0.21685,-2.89141 -0.21685,-4.62625 0,-1.30114 0.14457,-3.61426 0.21686,-2.31313 0.79514,-4.48169 0.57828,-2.24084 1.73484,-3.83111 1.15656,-1.66256 3.03598,-1.66256 1.4457,0 2.4577,1.01199 1.01199,1.01199 1.01199,2.38541 0,1.37342 -1.01199,2.38541 -0.43371,0.506 -0.72286,1.51799 -0.21685,1.012 -0.36142,2.24084 -0.14457,1.15657 -0.21686,2.24085 0,1.08427 0,1.66256 0,2.16855 0.28914,4.98767 0.28914,2.81913 1.08428,4.9154 1.08428,-0.72285 2.16856,-1.80713 1.08428,-1.15656 2.16855,-2.4577 1.08428,-1.30113 2.09628,-2.67455 1.08427,-1.4457 2.09627,-2.81912 0.79513,-1.012 1.4457,-1.87942 0.65057,-0.86742 1.30113,-1.66256 0.93971,-1.30113 2.31313,-1.30113 1.22885,0 2.09627,1.01199 0.93971,0.93971 0.93971,2.38541 0,1.08428 -0.72285,2.16856 -0.65057,1.01199 -1.51799,2.31312 -0.79514,1.22885 -1.80713,2.67456 -0.93971,1.37342 -2.02399,2.81912 -1.08428,1.4457 -2.16855,2.81912 -1.87942,2.38541 -4.33712,3.97569 -2.38541,1.59027 -4.69853,1.59027 z m 0.57828,-34.69689 q -0.86743,0 -1.73485,-0.36143 -0.79514,-0.36143 -1.51799,-0.93971 -0.65056,-0.57828 -1.08428,-1.37342 -0.43371,-0.86742 -0.43371,-1.73484 0,-1.73485 1.44571,-2.89141 1.4457,-1.15656 3.10826,-1.15656 1.80713,0 3.32512,1.37342 1.51799,1.37342 1.51799,3.18055 0,1.73484 -1.51799,2.81912 -1.4457,1.08428 -3.10826,1.08428 z M 140.5228,96.192551 q 0.36143,-1.156564 1.30114,-1.80713 0.9397,-0.722853 2.31312,-0.722853 1.51799,0 2.60227,1.011993 1.08428,0.939708 1.08428,2.385412 0,0.216856 -0.0723,0.433711 0,0.216856 0,0.433711 -0.28914,1.445704 -0.43371,3.469695 -0.14457,2.02398 -0.21685,4.26482 -0.0723,2.24084 -0.14457,4.55397 0,2.24084 0,4.26483 l -0.0723,15.17989 q 1.37342,-1.30113 2.96369,-2.74684 1.66256,-1.4457 3.46969,-2.60227 1.87942,-1.15656 3.83112,-1.87941 1.9517,-0.79514 3.97568,-0.79514 1.87942,0 3.54198,0.72285 1.73484,0.72286 3.03598,2.02399 1.30113,1.22885 2.09627,2.96369 0.79514,1.66256 0.79514,3.54198 0,1.22885 -0.21686,2.16855 2.24084,-1.4457 4.12026,-3.32512 1.9517,-1.87941 3.61426,-4.19254 0.57828,-0.79513 1.15656,-1.22885 0.65057,-0.50599 1.66256,-0.50599 1.01199,0 2.09627,0.93971 1.15656,0.9397 1.08428,2.31312 0,0.86742 -0.36143,1.44571 -0.36142,0.57828 -0.79513,1.30113 -2.16856,3.54197 -5.71053,6.43338 -3.46969,2.89141 -7.87909,4.98768 -4.4094,2.02399 -9.54165,3.18055 -5.13225,1.15656 -10.40907,1.15656 -3.18055,-0.0723 -5.05996,-1.01199 -1.87942,-1.01199 -2.9637,-2.67455 -1.01199,-1.73485 -1.37341,-3.97569 -0.36143,-2.31312 -0.43372,-4.91539 -0.0723,-1.87942 -0.14457,-3.75883 0,-1.9517 0,-3.83112 0,-1.15656 0,-3.54197 0.0723,-2.4577 0.0723,-5.42139 0.0723,-3.03598 0.14457,-6.28882 0.0723,-3.25283 0.14457,-6.07195 0.14457,-2.89141 0.28914,-4.987681 0.21686,-2.168556 0.43371,-2.891408 z m 7.58995,42.286839 q 0.36142,0.0723 0.65057,0.14457 0.28914,0 0.65056,0 3.18055,0 6.50567,-0.79513 3.32512,-0.86743 5.71053,-3.10827 0.72285,-0.72285 1.37342,-1.73484 0.72285,-1.01199 0.72285,-2.09627 0,-0.93971 -0.86742,-1.66256 -0.79514,-0.72285 -1.73485,-0.72285 -1.51798,0 -3.3974,1.15656 -1.80713,1.15656 -3.68654,2.74684 -1.80713,1.59027 -3.39741,3.32512 -1.59027,1.66256 -2.52998,2.74683 z m 29.99839,-42.286839 q 0.36142,-1.156564 1.30113,-1.80713 0.93971,-0.722853 2.31313,-0.722853 1.51798,0 2.60226,1.011993 1.08428,0.939708 1.08428,2.385412 0,0.216856 -0.0723,0.433711 0,0.216856 0,0.433711 -0.28915,1.445704 -0.43372,3.469695 -0.14457,2.02398 -0.21685,4.26482 -0.0723,2.24084 -0.14457,4.55397 0,2.24084 0,4.26483 l -0.0723,15.17989 q 1.37342,-1.30113 2.9637,-2.74684 1.66256,-1.4457 3.46969,-2.60227 1.87941,-1.15656 3.83111,-1.87941 1.9517,-0.79514 3.97569,-0.79514 1.87941,0 3.54197,0.72285 1.73485,0.72286 3.03598,2.02399 1.30114,1.22885 2.09627,2.96369 0.79514,1.66256 0.79514,3.54198 0,1.22885 -0.21686,2.16855 2.24085,-1.4457 4.12026,-3.32512 1.9517,-1.87941 3.61426,-4.19254 0.57828,-0.79513 1.15656,-1.22885 0.65057,-0.50599 1.66256,-0.50599 1.012,0 2.09627,0.93971 1.15657,0.9397 1.08428,2.31312 0,0.86742 -0.36142,1.44571 -0.36143,0.57828 -0.79514,1.30113 -2.16856,3.54197 -5.71053,6.43338 -3.46969,2.89141 -7.87909,4.98768 -4.4094,2.02399 -9.54165,3.18055 -5.13224,1.15656 -10.40906,1.15656 -3.18055,-0.0723 -5.05997,-1.01199 -1.87941,-1.01199 -2.96369,-2.67455 -1.01199,-1.73485 -1.37342,-3.97569 -0.36143,-2.31312 -0.43371,-4.91539 -0.0723,-1.87942 -0.14457,-3.75883 0,-1.9517 0,-3.83112 0,-1.15656 0,-3.54197 0.0723,-2.4577 0.0723,-5.42139 0.0723,-3.03598 0.14457,-6.28882 0.0723,-3.25283 0.14457,-6.07195 0.14457,-2.89141 0.28914,-4.987681 0.21686,-2.168556 0.43372,-2.891408 z m 7.58994,42.286839 q 0.36143,0.0723 0.65057,0.14457 0.28914,0 0.65057,0 3.18054,0 6.50566,-0.79513 3.32512,-0.86743 5.71053,-3.10827 0.72286,-0.72285 1.37342,-1.73484 0.72286,-1.01199 0.72286,-2.09627 0,-0.93971 -0.86743,-1.66256 -0.79513,-0.72285 -1.73484,-0.72285 -1.51799,0 -3.39741,1.15656 -1.80713,1.15656 -3.68654,2.74684 -1.80713,1.59027 -3.39741,3.32512 -1.59027,1.66256 -2.52998,2.74683 z m 29.34783,-13.6619 q 0,-1.66256 0,-4.04797 0,-2.38541 0.0723,-5.13225 0.0723,-2.74684 0.14458,-5.56596 0.14457,-2.89141 0.36142,-5.42139 0.21686,-2.60227 0.506,-4.698539 0.28914,-2.096271 0.79513,-3.252834 0.36143,-1.011993 1.22885,-1.590274 0.86743,-0.650567 1.9517,-0.650567 1.44571,0 2.4577,1.011993 1.01199,0.939707 1.01199,2.385411 0,0.650567 -0.21685,1.156563 -0.506,1.517987 -0.79514,4.698537 -0.28914,3.10827 -0.43371,6.72253 -0.14457,3.54197 -0.21686,6.93937 0,3.39741 0,5.34911 0,3.75883 0.14457,7.58995 0.21686,3.83111 1.012,7.44537 0.36142,-0.14457 0.9397,-0.65057 0.65057,-0.50599 1.30114,-1.30113 1.30113,-1.4457 2.67455,-3.18055 1.37342,-1.80713 2.74684,-3.68654 1.4457,-1.9517 2.96369,-3.83112 0.93971,-1.30113 2.31313,-1.30113 1.22885,0 2.09627,1.01199 0.93971,0.93971 0.93971,2.38541 0,1.08428 -0.72286,2.16856 -0.65056,1.01199 -1.51798,2.31312 -0.79514,1.22885 -1.80713,2.67456 -0.93971,1.37342 -2.02399,2.81912 -1.08428,1.4457 -2.16856,2.81912 -1.87941,2.38541 -4.26482,3.97569 -2.38542,1.51799 -4.69854,1.51799 -2.38541,0 -3.75883,-2.16856 -1.30114,-2.16855 -2.02399,-5.3491 -0.65056,-3.18055 -0.86742,-6.72253 -0.14457,-3.61426 -0.14457,-6.43338 z m 29.42008,20.67357 q -3.03598,0 -5.49368,-0.93971 -2.38541,-1.01199 -4.12025,-2.74684 -1.66256,-1.80713 -2.52998,-4.26482 -0.86743,-2.4577 -0.86743,-5.42139 0,-4.26483 0.93971,-7.73452 1.01199,-3.46969 2.81912,-5.92739 1.80713,-2.52998 4.33712,-3.83111 2.60226,-1.37342 5.71053,-1.37342 3.61426,0 6.07195,2.16855 2.4577,2.09628 2.4577,5.78282 0,2.96369 -1.51799,4.98768 -1.51799,2.02399 -3.83111,3.25283 -2.24084,1.15657 -4.98768,1.66256 -2.67456,0.506 -5.13225,0.506 -0.0723,3.18055 1.22885,5.13225 1.37342,1.87941 4.84311,1.87941 2.16855,0 4.40939,-1.08427 2.31313,-1.15657 4.4094,-2.81913 2.09627,-1.73484 3.9034,-3.61426 1.80713,-1.9517 3.03598,-3.54197 0.93971,-1.15656 2.09627,-2.4577 1.22885,-1.30113 2.31313,-1.30113 1.15656,0 2.02398,0.93971 0.93971,0.86742 0.93971,2.52998 0,0.72285 -0.79514,2.09627 -0.72285,1.37342 -1.9517,3.03598 -1.87941,2.38541 -4.12025,4.77082 -2.16856,2.31313 -4.69854,4.19254 -2.52998,1.80713 -5.42139,2.9637 -2.81913,1.15656 -6.07196,1.15656 z m -4.33711,-20.74585 q 0.65056,-0.0723 1.80713,-0.21686 1.15656,-0.21686 2.24084,-0.57828 1.15656,-0.43371 1.9517,-1.08428 0.79514,-0.65057 0.79514,-1.66256 0,-0.72285 -0.57828,-0.86742 -0.506,-0.21686 -1.08428,-0.21686 -0.79514,0 -1.59028,0.506 -0.79513,0.43371 -1.4457,1.15656 -0.65057,0.65057 -1.22885,1.44571 -0.506,0.79513 -0.86742,1.51799 z"
         id="text1-6-8-82"
         aria-label="nibble" />
      <path
         style="font-size:72.2852px;font-family:'Yay Babe';-inkscape-font-specification:'Yay Babe';letter-spacing:0px;stroke-width:25.6128;stroke-linecap:round;stroke-miterlimit:0"
         d="m -263.33541,-153.39476 q -1.22885,0 -2.02399,-0.506 -0.79513,-0.50599 -1.22884,-1.30113 -0.506,-0.79514 -0.72286,-1.73485 -0.21685,-1.01199 -0.21685,-2.02398 0,-1.73485 0.28914,-3.46969 0.21686,-1.73485 0.506,-3.46969 0.28914,-1.66256 0.50599,-3.3974 0.21686,-1.73485 0.21686,-3.46969 0,-0.36143 -0.0723,-0.57829 -0.21685,-0.43371 -0.21685,-0.9397 0,-1.44571 1.01199,-2.38542 1.01199,-1.01199 2.4577,-1.01199 1.22885,0 2.16855,0.86742 0.93971,0.79514 1.30114,2.02399 0.65056,-1.30113 1.4457,-2.60227 0.79514,-1.30113 1.87942,-2.38541 1.08427,-1.08428 2.38541,-1.73484 1.30113,-0.65057 2.89141,-0.65057 2.52998,0 3.97568,2.02399 1.51799,2.02398 2.31313,5.05996 0.86742,3.03598 1.22885,6.57795 0.36142,3.54198 0.65056,6.65024 0.21686,1.73485 0.36143,3.25284 0.21686,1.4457 0.43371,2.45769 1.87942,-2.02398 3.83112,-4.33711 1.9517,-2.31313 3.83111,-4.62625 1.87942,-2.31313 3.54198,-4.55397 1.73484,-2.24084 3.10826,-4.12026 0.43371,-0.72285 1.01199,-1.01199 0.65057,-0.28914 1.30114,-0.28914 1.22885,0 2.09627,1.01199 0.93971,0.93971 0.93971,2.38541 0,1.08428 -0.72286,2.16856 -0.79513,1.30113 -2.16855,3.3974 -1.37342,2.02399 -3.03598,4.4094 -1.66256,2.38541 -3.61426,4.84311 -1.9517,2.38541 -3.9034,4.33711 -1.9517,2.02399 -3.83112,3.25284 -1.87941,1.22884 -3.46969,1.22884 -1.9517,0 -3.25283,-1.51798 -1.22885,-1.51799 -2.02399,-3.90341 -0.72285,-2.45769 -1.15656,-5.42139 -0.43371,-3.03597 -0.72285,-5.99967 -0.36143,-3.10826 -0.43371,-5.71053 0,-2.67455 -0.72286,-4.33711 -1.4457,1.4457 -2.52998,4.19254 -1.01199,2.74684 -2.02398,5.71053 -0.72286,2.16856 -1.51799,4.26483 -0.72285,2.09627 -1.66256,3.75883 -0.86742,1.59027 -1.9517,2.60227 -1.08428,1.01199 -2.4577,1.01199 z m 42.28684,0.0723 q -2.52998,0 -4.04797,-1.95171 -1.4457,-2.02398 -2.24084,-4.69853 -0.79514,-2.74684 -1.08428,-5.63825 -0.21686,-2.89141 -0.21686,-4.62625 0,-1.30114 0.14457,-3.61426 0.21686,-2.31313 0.79514,-4.48168 0.57828,-2.24085 1.73485,-3.83112 1.15656,-1.66256 3.03598,-1.66256 1.4457,0 2.45769,1.01199 1.01199,1.012 1.01199,2.38541 0,1.37342 -1.01199,2.38542 -0.43371,0.50599 -0.72285,1.51799 -0.21686,1.01199 -0.36143,2.24084 -0.14457,1.15656 -0.21685,2.24084 0,1.08428 0,1.66256 0,2.16855 0.28914,4.98768 0.28914,2.81912 1.08428,4.91539 1.08428,-0.72285 2.16855,-1.80713 1.08428,-1.15656 2.16856,-2.4577 1.08428,-1.30113 2.09627,-2.67455 1.08428,-1.4457 2.09627,-2.81912 0.79514,-1.012 1.44571,-1.87942 0.65056,-0.86742 1.30113,-1.66256 0.93971,-1.30113 2.31313,-1.30113 1.22884,0 2.09627,1.01199 0.9397,0.93971 0.9397,2.38541 0,1.08428 -0.72285,2.16856 -0.65057,1.01199 -1.51799,2.31313 -0.79513,1.22884 -1.80713,2.67455 -0.93971,1.37342 -2.02398,2.81912 -1.08428,1.44571 -2.16856,2.81912 -1.87941,2.38542 -4.33711,3.97569 -2.38541,1.59028 -4.69854,1.59028 z m 0.57828,-34.6969 q -0.86742,0 -1.73484,-0.36143 -0.79514,-0.36142 -1.51799,-0.93971 -0.65057,-0.57828 -1.08428,-1.37341 -0.43371,-0.86743 -0.43371,-1.73485 0,-1.73484 1.4457,-2.89141 1.44571,-1.15656 3.10827,-1.15656 1.80713,0 3.32512,1.37342 1.51798,1.37342 1.51798,3.18055 0,1.73484 -1.51798,2.81912 -1.44571,1.08428 -3.10827,1.08428 z m 10.91513,-14.6739 q 0.36142,-1.15656 1.30113,-1.80713 0.93971,-0.72285 2.31313,-0.72285 1.51799,0 2.60226,1.01199 1.08428,0.93971 1.08428,2.38541 0,0.21686 -0.0723,0.43372 0,0.21685 0,0.43371 -0.28914,1.4457 -0.43371,3.46969 -0.14457,2.02398 -0.21686,4.26482 -0.0723,2.24084 -0.14457,4.55397 0,2.24084 0,4.26483 l -0.0723,15.17989 q 1.37341,-1.30113 2.96369,-2.74684 1.66256,-1.4457 3.46969,-2.60226 1.87941,-1.15657 3.83111,-1.87942 1.9517,-0.79514 3.97569,-0.79514 1.87942,0 3.54198,0.72286 1.73484,0.72285 3.03597,2.02398 1.30114,1.22885 2.09627,2.96369 0.79514,1.66256 0.79514,3.54198 0,1.22885 -0.21685,2.16856 2.24084,-1.44571 4.12025,-3.32512 1.9517,-1.87942 3.61426,-4.19255 0.57828,-0.79513 1.15657,-1.22884 0.65056,-0.506 1.66256,-0.506 1.01199,0 2.09627,0.93971 1.15656,0.9397 1.08427,2.31312 0,0.86743 -0.36142,1.44571 -0.36143,0.57828 -0.79514,1.30113 -2.16855,3.54198 -5.71053,6.43338 -3.46969,2.89141 -7.87909,4.98768 -4.40939,2.02399 -9.54164,3.18055 -5.13225,1.15657 -10.40907,1.15657 -3.18055,-0.0723 -5.05997,-1.012 -1.87941,-1.01199 -2.96369,-2.67455 -1.01199,-1.73485 -1.37342,-3.97569 -0.36142,-2.31312 -0.43371,-4.91539 -0.0723,-1.87942 -0.14457,-3.75883 0,-1.9517 0,-3.83112 0,-1.15656 0,-3.54197 0.0723,-2.4577 0.0723,-5.42139 0.0723,-3.03598 0.14458,-6.28881 0.0723,-3.25284 0.14457,-6.07196 0.14457,-2.89141 0.28914,-4.98768 0.21685,-2.16856 0.43371,-2.89141 z m 7.58994,42.28685 q 0.36143,0.0723 0.65057,0.14457 0.28914,0 0.65057,0 3.18055,0 6.50567,-0.79514 3.32511,-0.86742 5.71053,-3.10827 0.72285,-0.72285 1.37342,-1.73484 0.72285,-1.01199 0.72285,-2.09627 0,-0.93971 -0.86742,-1.66256 -0.79514,-0.72285 -1.73485,-0.72285 -1.51799,0 -3.3974,1.15656 -1.80713,1.15656 -3.68655,2.74684 -1.80713,1.59027 -3.3974,3.32512 -1.59028,1.66256 -2.52999,2.74684 z m 29.99839,-42.28685 q 0.36143,-1.15656 1.30113,-1.80713 0.93971,-0.72285 2.31313,-0.72285 1.51799,0 2.60227,1.01199 1.08428,0.93971 1.08428,2.38541 0,0.21686 -0.0723,0.43372 0,0.21685 0,0.43371 -0.28914,1.4457 -0.43371,3.46969 -0.14457,2.02398 -0.21686,4.26482 -0.0723,2.24084 -0.14457,4.55397 0,2.24084 0,4.26483 l -0.0723,15.17989 q 1.37342,-1.30113 2.96369,-2.74684 1.66256,-1.4457 3.46969,-2.60226 1.87942,-1.15657 3.83112,-1.87942 1.9517,-0.79514 3.97568,-0.79514 1.87942,0 3.54198,0.72286 1.73484,0.72285 3.03598,2.02398 1.30113,1.22885 2.09627,2.96369 0.79513,1.66256 0.79513,3.54198 0,1.22885 -0.21685,2.16856 2.24084,-1.44571 4.12026,-3.32512 1.9517,-1.87942 3.61426,-4.19255 0.57828,-0.79513 1.15656,-1.22884 0.65057,-0.506 1.66256,-0.506 1.01199,0 2.09627,0.93971 1.15656,0.9397 1.08428,2.31312 0,0.86743 -0.36143,1.44571 -0.36142,0.57828 -0.79514,1.30113 -2.16855,3.54198 -5.71053,6.43338 -3.46969,2.89141 -7.87908,4.98768 -4.4094,2.02399 -9.54165,3.18055 -5.13225,1.15657 -10.40907,1.15657 -3.18055,-0.0723 -5.05996,-1.012 -1.87942,-1.01199 -2.9637,-2.67455 -1.01199,-1.73485 -1.37342,-3.97569 -0.36142,-2.31312 -0.43371,-4.91539 -0.0723,-1.87942 -0.14457,-3.75883 0,-1.9517 0,-3.83112 0,-1.15656 0,-3.54197 0.0723,-2.4577 0.0723,-5.42139 0.0723,-3.03598 0.14457,-6.28881 0.0723,-3.25284 0.14457,-6.07196 0.14457,-2.89141 0.28914,-4.98768 0.21686,-2.16856 0.43371,-2.89141 z m 7.58995,42.28685 q 0.36142,0.0723 0.65056,0.14457 0.28914,0 0.65057,0 3.18055,0 6.50567,-0.79514 3.32512,-0.86742 5.71053,-3.10827 0.72285,-0.72285 1.37342,-1.73484 0.72285,-1.01199 0.72285,-2.09627 0,-0.93971 -0.86742,-1.66256 -0.79514,-0.72285 -1.73485,-0.72285 -1.51799,0 -3.3974,1.15656 -1.80713,1.15656 -3.68655,2.74684 -1.80713,1.59027 -3.3974,3.32512 -1.59028,1.66256 -2.52998,2.74684 z m 29.34782,-13.66191 q 0,-1.66256 0,-4.04797 0,-2.38541 0.0723,-5.13225 0.0723,-2.74684 0.14457,-5.56596 0.14457,-2.89141 0.36143,-5.42139 0.21685,-2.60227 0.50599,-4.69854 0.28914,-2.09627 0.79514,-3.25283 0.36143,-1.01199 1.22885,-1.59028 0.86742,-0.65056 1.9517,-0.65056 1.4457,0 2.4577,1.01199 1.01199,0.93971 1.01199,2.38541 0,0.65057 -0.21686,1.15656 -0.50599,1.51799 -0.79513,4.69854 -0.28915,3.10827 -0.43372,6.72253 -0.14457,3.54197 -0.21685,6.93938 0,3.3974 0,5.3491 0,3.75883 0.14457,7.58995 0.21685,3.83111 1.01199,7.44537 0.36143,-0.14457 0.93971,-0.65056 0.65057,-0.506 1.30113,-1.30114 1.30114,-1.4457 2.67456,-3.18055 1.37341,-1.80713 2.74683,-3.68654 1.44571,-1.9517 2.9637,-3.83112 0.9397,-1.30113 2.31312,-1.30113 1.22885,0 2.09627,1.01199 0.93971,0.93971 0.93971,2.38541 0,1.08428 -0.72285,2.16856 -0.65057,1.01199 -1.51799,2.31313 -0.79514,1.22884 -1.80713,2.67455 -0.93971,1.37342 -2.02399,2.81912 -1.08427,1.44571 -2.16855,2.81912 -1.87942,2.38542 -4.26483,3.97569 -2.38541,1.51799 -4.69854,1.51799 -2.38541,0 -3.75883,-2.16856 -1.30113,-2.16855 -2.02398,-5.3491 -0.65057,-3.18055 -0.86742,-6.72252 -0.14458,-3.61427 -0.14458,-6.43339 z m 29.42009,20.67357 q -3.03598,0 -5.49368,-0.93971 -2.38541,-1.01199 -4.12026,-2.74684 -1.66256,-1.80713 -2.52998,-4.26482 -0.86742,-2.4577 -0.86742,-5.42139 0,-4.26483 0.93971,-7.73452 1.01199,-3.46969 2.81912,-5.92739 1.80713,-2.52998 4.33711,-3.83111 2.60227,-1.37342 5.71053,-1.37342 3.61426,0 6.07196,2.16856 2.457696,2.09627 2.457696,5.78281 0,2.9637 -1.517989,4.98768 -1.517989,2.02399 -3.831117,3.25284 -2.24084,1.15656 -4.98768,1.66255 -2.67455,0.506 -5.13225,0.506 -0.0723,3.18055 1.22885,5.13225 1.37342,1.87942 4.84311,1.87942 2.16856,0 4.4094,-1.08428 2.313124,-1.15657 4.409395,-2.81913 2.096271,-1.73484 3.903401,-3.61426 1.80713,-1.9517 3.035978,-3.54197 0.939708,-1.15656 2.096271,-2.4577 1.228849,-1.30113 2.313127,-1.30113 1.156563,0 2.023985,0.93971 0.939708,0.86742 0.939708,2.52998 0,0.72285 -0.795137,2.09627 -0.722852,1.37342 -1.951701,3.03598 -1.879415,2.38541 -4.120256,4.77082 -2.168556,2.31313 -4.698538,4.19254 -2.529983,1.80713 -5.421391,2.9637 -2.819122,1.15656 -6.071952,1.15656 z m -4.33712,-20.74585 q 0.65057,-0.0723 1.80713,-0.21686 1.15657,-0.21685 2.24084,-0.57828 1.15657,-0.43371 1.95171,-1.08428 0.79513,-0.65057 0.79513,-1.66256 0,-0.72285 -0.57828,-0.86742 -0.506,-0.21686 -1.08428,-0.21686 -0.79513,0 -1.59027,0.506 -0.79514,0.43371 -1.44571,1.15656 -0.65056,0.65057 -1.22884,1.44571 -0.506,0.79513 -0.86743,1.51799 z"
         id="text1-6-8-82-1"
         transform="scale(-1)"
         aria-label="nibble" />
    </g>
  </g>
</svg>
